<?xml version="1.0" encoding="UTF-8"?><svg id="Layer_1" xmlns="http://www.w3.org/2000/svg" viewBox="0 0 30 30"><defs><style>.cls-1{fill:#ff6746;}</style></defs><path class="cls-1" d="M14.9,29.68c-3.94,0-7.64-1.53-10.43-4.32C1.68,22.57,.15,18.87,.15,14.93S1.68,7.29,4.47,4.5C7.26,1.71,10.96,.18,14.9,.18s7.64,1.53,10.43,4.32c2.79,2.79,4.32,6.49,4.32,10.43s-1.53,7.64-4.32,10.43c-2.79,2.79-6.49,4.32-10.43,4.32ZM14.9,1.49c-3.59,0-6.96,1.4-9.5,3.94C2.86,7.97,1.46,11.34,1.46,14.93s1.4,6.96,3.94,9.5c2.54,2.54,5.91,3.94,9.5,3.94s6.96-1.4,9.5-3.94c2.54-2.54,3.94-5.91,3.94-9.5s-1.4-6.96-3.94-9.5c-2.54-2.54-5.91-3.94-9.5-3.94Z"/><g><path class="cls-1" d="M8.9,21.59c-.17,0-.34-.06-.46-.19-.26-.26-.26-.67,0-.93l12-12c.26-.26,.67-.26,.93,0s.26,.67,0,.93l-12,12c-.13,.13-.3,.19-.46,.19Z"/><path class="cls-1" d="M8.9,22.18c-.33,0-.65-.13-.88-.36-.49-.49-.49-1.28,0-1.77l12-12c.49-.48,1.28-.48,1.76,0,.24,.24,.37,.55,.37,.88s-.13,.65-.37,.88l-12,12c-.24,.23-.55,.36-.88,.36Zm12.05-13.21l-12.1,11.92,.05,.11s.04-.01,.05-.02l12-12Z"/></g><g><path class="cls-1" d="M20.9,21.59c-.17,0-.34-.06-.46-.19L8.43,9.39c-.26-.26-.26-.67,0-.93s.67-.26,.93,0l12,12c.26,.26,.26,.67,0,.93-.13,.13-.3,.19-.46,.19Z"/><path class="cls-1" d="M20.9,22.18c-.33,0-.65-.13-.88-.36L8.01,9.81c-.49-.49-.49-1.28,0-1.77,.49-.48,1.28-.48,1.76,0l12,12c.24,.24,.37,.55,.37,.88s-.13,.65-.37,.88c-.23,.23-.55,.36-.88,.36ZM8.94,8.88l11.96,12.11s.03,0,.05-.02L8.94,8.88Z"/></g></svg>