<?xml version="1.0" encoding="UTF-8"?><svg id="Layer_1" xmlns="http://www.w3.org/2000/svg" viewBox="0 0 25.02 19.08"><defs><style>.cls-1{fill:#fff;}</style></defs><g><path class="cls-1" d="M15.15,15.31c-5.6-3.51-11.46-4.59-11.46-4.59V4.64S9.55,3.56,15.15,.05c.22-.14,.5,.02,.5,.27V15.04c0,.26-.28,.41-.5,.27Z"/><path class="cls-1" d="M1.55,4.76h1.47v5.74H1.55C.7,10.5,0,9.8,0,8.94v-2.63C0,5.45,.7,4.76,1.55,4.76Z"/><rect class="cls-1" x="2.1" y="11.42" width="1.85" height="7.66" rx=".5" ry=".5"/><path class="cls-1" d="M17.51,8.94l-1.01,.74c-.06,.04-.14,0-.14-.07v-3.99c0-.07,.08-.11,.14-.07l1.01,.74c.18,.13,.28,.34,.28,.56v1.53c0,.22-.11,.43-.28,.56Z"/></g><g><path class="cls-1" d="M20.28,2.91c-.14,0-.27-.08-.34-.21-.09-.19-.01-.41,.18-.5l2.88-1.38c.19-.09,.41-.01,.5,.18,.09,.19,.01,.41-.18,.5l-2.88,1.38c-.05,.02-.11,.04-.16,.04Z"/><path class="cls-1" d="M23.16,13.37c-.05,0-.11-.01-.16-.04l-2.88-1.38c-.19-.09-.27-.31-.18-.5,.09-.19,.31-.27,.5-.18l2.88,1.38c.19,.09,.27,.31,.18,.5-.06,.13-.2,.21-.34,.21Z"/><path class="cls-1" d="M24.65,7.45h-4.36c-.21,0-.38-.17-.38-.38s.17-.38,.38-.38h4.36c.21,0,.38,.17,.38,.38s-.17,.38-.38,.38Z"/></g></svg>