<?xml version="1.0" encoding="UTF-8"?><svg id="Layer_1" xmlns="http://www.w3.org/2000/svg" viewBox="0 0 30 30"><defs><style>.cls-1{fill:#ff6746;}</style></defs><g><path class="cls-1" d="M23.23,4.1l2.71-2.12c.29-.23,.71-.01,.7,.36l-.09,2.45-.11,2.87c0,.27-.26,.46-.52,.41l-2.81-.58-2.4-.49c-.36-.07-.47-.54-.18-.76l2.71-2.12Z"/><path class="cls-1" d="M7.5,27.47c-.2,0-.4-.06-.58-.17C2.68,24.58,.15,19.95,.15,14.92,.15,6.82,6.74,.23,14.84,.23c3.4,0,6.72,1.19,9.34,3.35,.46,.38,.52,1.06,.15,1.52-.38,.46-1.06,.52-1.52,.15-2.24-1.85-5.07-2.86-7.97-2.86C7.93,2.39,2.31,8.01,2.31,14.92c0,4.29,2.16,8.24,5.78,10.56,.5,.32,.65,.99,.33,1.49-.21,.32-.55,.5-.91,.5Z"/><g><path class="cls-1" d="M28.47,12.98c-.34,0-.66-.22-.77-.57-.2-.64-.46-1.26-.78-1.85-.21-.39-.06-.88,.34-1.09,.39-.21,.88-.06,1.09,.34,.36,.67,.66,1.39,.89,2.12,.13,.43-.1,.88-.53,1.02-.08,.03-.16,.04-.24,.04Z"/><path class="cls-1" d="M16.6,29.77c-.43,0-.79-.34-.81-.77-.02-.45,.33-.82,.77-.84,1.23-.05,2.45-.3,3.63-.72,.42-.15,.88,.07,1.04,.49,.15,.42-.07,.88-.49,1.04-1.33,.48-2.71,.75-4.1,.81-.01,0-.02,0-.04,0Zm7.33-2.64c-.25,0-.49-.11-.65-.32-.27-.36-.2-.86,.16-1.13,.33-.25,.65-.52,.95-.8,.59-.56,1.13-1.18,1.61-1.86,.26-.37,.76-.45,1.13-.2,.37,.26,.45,.76,.2,1.13-.54,.77-1.15,1.47-1.83,2.11-.34,.32-.71,.62-1.08,.91-.15,.11-.32,.16-.49,.16Zm4.48-6.36c-.08,0-.16-.01-.25-.04-.43-.14-.66-.59-.52-1.02,.38-1.19,.58-2.41,.59-3.65,0-.44,.37-.8,.81-.8h0c.45,0,.81,.37,.8,.82-.01,1.4-.24,2.79-.67,4.13-.11,.34-.43,.56-.77,.56Z"/><path class="cls-1" d="M12.69,29.31c-.07,0-.15-.01-.22-.03-.74-.21-1.47-.5-2.15-.84-.4-.2-.56-.69-.36-1.09,.2-.4,.69-.56,1.09-.36,.59,.3,1.22,.55,1.86,.73,.43,.12,.68,.57,.55,1-.1,.35-.43,.59-.78,.59Z"/></g></g><path class="cls-1" d="M13.74,21.49c0-.81,.65-1.44,1.44-1.44,.83,0,1.44,.63,1.44,1.44s-.61,1.46-1.44,1.46c-.79,0-1.44-.65-1.44-1.46Zm.4-14.34h2.11c.18,0,.27,.11,.27,.29l-.31,10.72c0,.18-.13,.29-.31,.29h-1.42c-.18,0-.29-.11-.29-.29l-.34-10.72c0-.18,.11-.29,.29-.29Z"/></svg>