<?xml version="1.0" encoding="UTF-8"?><svg id="Layer_1" xmlns="http://www.w3.org/2000/svg" viewBox="0 0 25.01 17.47"><defs><style>.cls-1{fill:#fff;}</style></defs><g id="Group_138"><g id="Group_135"><path id="Path_275" class="cls-1" d="M5.08,15.95H0c-.21-4.88,4.08-4.98,6.25-4.41-.73,.76-1.09,3.26-1.17,4.41Z"/><path id="Path_276" class="cls-1" d="M5.08,15.95H0c-.21-4.88,4.08-4.98,6.25-4.41-.73,.76-1.09,3.26-1.17,4.41Z"/></g><circle id="Ellipse_10" class="cls-1" cx="11.67" cy="4.33" r="4.33"/><circle id="Ellipse_11" class="cls-1" cx="4.25" cy="7.43" r="3.09"/><circle id="Ellipse_12" class="cls-1" cx="19.28" cy="7.43" r="3.09"/><g id="Group_136"><path id="Path_277" class="cls-1" d="M17.28,17.47H5.91c0-1.54,.3-2.45,.74-3.85,1.11-3.12,3.36-4.02,4.04-3.94h2.24c4.1,1.12,4.61,5.66,4.35,7.79Z"/><path id="Path_278" class="cls-1" d="M17.28,17.47H5.91c0-1.54,.3-2.45,.74-3.85,1.11-3.12,3.36-4.02,4.04-3.94h2.24c4.1,1.12,4.61,5.66,4.35,7.79Z"/></g><g id="Group_137"><path id="Path_279" class="cls-1" d="M18.75,11.24c-.72-.05-1.71,.37-1.63,.41,.55,.39,1.07,3.41,1.19,4.96h5.1c.04-.41-.17-1.59-.35-2.88-.14-1.03,.27-2.08,.49-2.48,.56-1,1.38-2.94,1.38-4.27l.06-3.03c-.46-.93-.84-.39-.98,0-.03,1.01-.13,2.03-.3,3.03-.27,1.46-1.46,2.98-2.18,3.62s-1.7,.74-2.8,.66Z"/><path id="Path_280" class="cls-1" d="M18.75,11.24c-.72-.05-1.71,.37-1.63,.41,.55,.39,1.07,3.41,1.19,4.96h5.1c.04-.41-.17-1.59-.35-2.88-.14-1.03,.27-2.08,.49-2.48,.56-1,1.38-2.94,1.38-4.27l.06-3.03c-.46-.93-.84-.39-.98,0-.03,1.01-.13,2.03-.3,3.03-.27,1.46-1.46,2.98-2.18,3.62s-1.7,.74-2.8,.66Z"/></g></g></svg>