<?xml version="1.0" encoding="UTF-8"?><svg id="Layer_1" xmlns="http://www.w3.org/2000/svg" xmlns:xlink="http://www.w3.org/1999/xlink" viewBox="0 0 84 71"><defs><style>.cls-1{fill:none;}.cls-2{clip-path:url(#clippath);}.cls-3{fill:#777;}</style><clipPath id="clippath"><rect class="cls-1" width="84" height="71"/></clipPath></defs><g class="cls-2"><g id="Artboard_1"><g id="Group_29059"><g id="Group_29058"><g id="Group_29056"><path id="Path_1718" d="M62,34.29c.01,.1,.03,.19,.04,.28,.67,2.08,1,4.24,1,6.42-.01,11.61-9.43,21.03-21.04,21.04-11.61-.01-21.03-9.43-21.04-21.04,0-2.2,.34-4.38,1.02-6.47,.01-.04,.03-.08,.04-.12s.03-.08,.04-.12H.12v26.11c0,4.61,3.74,8.35,8.35,8.35H75.53c4.61,0,8.35-3.74,8.35-8.35h0v-26.11h-21.88Z"/><path id="Path_1719" class="cls-3" d="M75.53,13.25h-.99v.12h.99c4.54,0,8.23,3.69,8.23,8.23v10.22h.12v-10.22c0-4.61-3.74-8.35-8.35-8.35h0Zm-16.47,.12h7.89v-.12h-7.91l.02,.12Zm-50.6-.12c-4.61,0-8.35,3.74-8.35,8.35H.12v10.23h.12v-10.22c0-4.54,3.69-8.23,8.23-8.23H24.94l.02-.12H8.47Z"/><path id="Path_1720" class="cls-3" d="M83.76,34.29v26.11c0,4.54-3.69,8.22-8.23,8.23H8.47c-4.54,0-8.22-3.69-8.23-8.23v-26.1H0v26.11c0,4.67,3.79,8.46,8.46,8.47H75.53c4.67,0,8.46-3.79,8.47-8.47v-26.11h-.24ZM8.46,13.13C3.79,13.14,0,16.92,0,21.6v10.22H.23v-10.22c0-4.54,3.69-8.23,8.23-8.23H24.93l.02-.12,.02-.12H8.46Zm67.07,0h-.99v.24h.99c4.54,0,8.23,3.69,8.23,8.23v10.22h.24v-10.22c0-4.67-3.79-8.46-8.46-8.47h0Zm-16.49,.12l.02,.12h7.89v-.24h-7.93l.02,.12Z"/></g><g id="Group_29057"><path id="Path_1721" class="cls-3" d="M50.76,34.52s-.06-.08-.09-.12-.06-.08-.09-.12c-.71-.95-1.58-1.78-2.56-2.47-.06-.04-.11-.08-.17-.12l-.18-.12c-1.8-1.16-3.89-1.77-6.04-1.77-2.14,0-4.24,.61-6.04,1.77l-.18,.12c-.06,.04-.11,.08-.17,.12-.98,.68-1.84,1.51-2.56,2.47-.03,.04-.06,.08-.09,.12s-.06,.08-.09,.12c-1.35,1.89-2.07,4.15-2.07,6.47,0,6.17,5.01,11.17,11.18,11.18,6.17-.01,11.17-5.01,11.18-11.19,0-2.32-.72-4.58-2.07-6.47Zm-9.11,17.42c-6.04,0-10.94-4.91-10.95-10.95,0-2.33,.74-4.6,2.12-6.47,.03-.04,.06-.08,.09-.12s.06-.08,.09-.12c.75-.96,1.66-1.8,2.68-2.47,.06-.04,.12-.08,.18-.12s.13-.08,.19-.12c1.69-1.01,3.62-1.54,5.59-1.54,1.97,0,3.9,.53,5.59,1.54,.07,.04,.13,.08,.19,.12s.12,.08,.18,.12c1.02,.67,1.93,1.5,2.68,2.47,.03,.04,.06,.08,.09,.12s.06,.08,.09,.12c1.38,1.88,2.13,4.14,2.12,6.47,0,6.04-4.9,10.94-10.95,10.95Z"/><path id="Path_1722" d="M58.42,34.52s-.03-.08-.05-.12-.03-.08-.05-.12c-.34-.85-.75-1.68-1.22-2.47l-.07-.12s-.05-.08-.07-.12c-3.27-5.32-9.06-8.56-15.31-8.56-6.24,0-12.04,3.24-15.31,8.56-.03,.04-.05,.08-.07,.12s-.05,.08-.07,.12c-.47,.79-.88,1.61-1.22,2.47-.02,.04-.04,.08-.05,.12s-.03,.08-.05,.12c-.8,2.06-1.21,4.26-1.21,6.47,.01,9.92,8.05,17.96,17.97,17.97,9.92-.01,17.96-8.05,17.97-17.97,0-2.21-.41-4.41-1.2-6.47Zm-16.77,17.66c-6.17,0-11.17-5.01-11.18-11.18,0-2.32,.72-4.58,2.07-6.47,.03-.04,.06-.08,.09-.12s.06-.08,.09-.12c.71-.95,1.58-1.78,2.56-2.47,.06-.04,.11-.08,.17-.12l.18-.12c1.8-1.16,3.89-1.77,6.04-1.77,2.14,0,4.23,.61,6.03,1.77l.18,.12c.06,.04,.11,.08,.17,.12,.98,.68,1.84,1.51,2.56,2.47,.03,.04,.06,.08,.09,.12s.06,.08,.09,.12c1.35,1.89,2.07,4.15,2.07,6.47,0,6.17-5.01,11.17-11.18,11.18h0Z"/></g><path id="Path_1723" d="M75.53,13.36h-.99v-.42c0-1.29-1.05-2.33-2.34-2.34h-2.91c-1.29,0-2.33,1.05-2.34,2.34v.42h-7.89l-.02-.12-.02-.12-1.36-7.27c-.19-.99-1.05-1.71-2.06-1.71H28.4c-1.01,0-1.88,.72-2.06,1.71l-1.36,7.27-.02,.12-.02,.12H8.47c-4.54,0-8.22,3.69-8.23,8.23v10.23H23.07s.04-.08,.06-.12c.02-.04,.04-.08,.06-.12,3.57-7.12,10.84-11.62,18.81-11.63,7.97,0,15.25,4.51,18.81,11.63,.02,.04,.04,.08,.06,.12,.02,.04,.04,.08,.06,.12h22.83v-10.22c0-4.54-3.68-8.22-8.23-8.23ZM21.8,22.21c0,1.16-.94,2.1-2.1,2.1h-6.89c-1.16,0-2.1-.94-2.1-2.1v-.66c0-1.16,.94-2.1,2.1-2.1h6.89c1.16,0,2.1,.94,2.1,2.1v.66Z"/></g></g></g></g></svg>