<?xml version="1.0" encoding="UTF-8"?><svg id="Layer_1" xmlns="http://www.w3.org/2000/svg" viewBox="0 0 25 16.6"><defs><style>.cls-1{fill:#fff;}</style></defs><path class="cls-1" d="M.52,11.81H3.55c.29,0,.52,.23,.52,.52v4.27H0v-4.27C0,12.04,.23,11.81,.52,11.81Z"/><path class="cls-1" d="M7.49,7.02h3.03c.29,0,.52,.23,.52,.52v9.05H6.96V7.54c0-.29,.23-.52,.52-.52Z"/><path class="cls-1" d="M14.45,8.71h3.03c.29,0,.52,.23,.52,.52v7.36h-4.07v-7.36c0-.29,.23-.52,.52-.52Z"/><path class="cls-1" d="M21.41,7.02h3.03c.29,0,.52,.23,.52,.52v9.05h-4.07V7.54c0-.29,.23-.52,.52-.52Z"/><g><circle class="cls-1" cx="23.61" cy="1.39" r="1.22"/><path class="cls-1" d="M23.61,2.78c-.77,0-1.39-.62-1.39-1.39s.62-1.39,1.39-1.39,1.39,.62,1.39,1.39-.62,1.39-1.39,1.39Zm0-2.44c-.58,0-1.05,.47-1.05,1.05s.47,1.05,1.05,1.05,1.05-.47,1.05-1.05-.47-1.05-1.05-1.05Z"/></g><g><circle class="cls-1" cx="16.11" cy="2.61" r="1.22"/><path class="cls-1" d="M16.11,4c-.77,0-1.39-.62-1.39-1.39s.62-1.39,1.39-1.39,1.39,.62,1.39,1.39-.62,1.39-1.39,1.39Zm0-2.44c-.58,0-1.05,.47-1.05,1.05s.47,1.05,1.05,1.05,1.05-.47,1.05-1.05-.47-1.05-1.05-1.05Z"/></g><g><circle class="cls-1" cx="8.81" cy="1.39" r="1.22"/><path class="cls-1" d="M8.81,2.78c-.77,0-1.39-.62-1.39-1.39s.62-1.39,1.39-1.39,1.39,.62,1.39,1.39-.62,1.39-1.39,1.39Zm0-2.44c-.58,0-1.05,.47-1.05,1.05s.47,1.05,1.05,1.05,1.05-.47,1.05-1.05-.47-1.05-1.05-1.05Z"/></g><g><circle class="cls-1" cx="1.47" cy="4.28" r="1.22"/><path class="cls-1" d="M1.47,5.67C.71,5.67,.08,5.04,.08,4.28s.62-1.39,1.39-1.39,1.39,.62,1.39,1.39-.62,1.39-1.39,1.39Zm0-2.44c-.58,0-1.05,.47-1.05,1.05s.47,1.05,1.05,1.05,1.05-.47,1.05-1.05-.47-1.05-1.05-1.05Z"/></g><rect class="cls-1" x="12.29" y="-.74" width=".35" height="5.49" transform="translate(8.38 13.94) rotate(-80.22)"/><polygon class="cls-1" points="17.33 2.64 17.3 2.64 17.3 2.42 17.27 2.3 22.5 1.22 22.57 1.56 17.33 2.64"/><path class="cls-1" d="M2.08,4.12l-.14-.31c.24-.11,5.57-2.41,5.62-2.43l.14,.32c-.05,.02-5.38,2.32-5.62,2.43Z"/></svg>