<?xml version="1.0" encoding="UTF-8"?><svg id="Layer_1" xmlns="http://www.w3.org/2000/svg" viewBox="0 0 30 30"><defs><style>.cls-1{fill:#00aee8;}</style></defs><path class="cls-1" d="M13.32,26.57c-3.53,0-6.85-1.37-9.35-3.87C1.48,20.21,.1,16.89,.1,13.36S1.48,6.51,3.97,4.01C6.47,1.52,9.79,.14,13.32,.14s6.85,1.37,9.35,3.87c2.5,2.5,3.87,5.81,3.87,9.35h-1.18c0-3.22-1.25-6.24-3.53-8.51-2.27-2.27-5.3-3.53-8.51-3.53s-6.24,1.25-8.51,3.53C2.53,7.12,1.28,10.14,1.28,13.36s1.25,6.24,3.53,8.51c2.27,2.27,5.3,3.53,8.51,3.53v1.18Z"/><path class="cls-1" d="M22.34,29.79c-4.19,0-7.6-3.41-7.6-7.6s3.41-7.6,7.6-7.6,7.6,3.41,7.6,7.6-3.41,7.6-7.6,7.6Zm0-14.17c-3.62,0-6.57,2.95-6.57,6.57s2.95,6.57,6.57,6.57,6.57-2.95,6.57-6.57-2.95-6.57-6.57-6.57Z"/><polyline class="cls-1" points="17.4 22.19 21.92 25.37 21.92 23.59 26.86 23.59 26.86 20.79 21.92 20.79 21.92 19.01 17.4 22.19"/><g><path class="cls-1" d="M14.07,15.25c.37,0,.66-.3,.66-.66V5.48c0-.37-.3-.66-.66-.66s-.66,.3-.66,.66V14.59c0,.37,.3,.66,.66,.66Z"/><path class="cls-1" d="M7.83,15.25h6.24c.37,0,.66-.3,.66-.66s-.3-.66-.66-.66H7.83c-.37,0-.66,.3-.66,.66s.3,.66,.66,.66Z"/></g></svg>