<?xml version="1.0" encoding="UTF-8"?><svg id="Layer_1" xmlns="http://www.w3.org/2000/svg" viewBox="0 0 30 30"><defs><style>.cls-1{fill:#00aee8;}</style></defs><path class="cls-1" d="M27.15,14.98c0,6.69-5.43,12.12-12.12,12.12-.19,0-.38,0-.56-.01V2.87c.19,0,.37-.01,.56-.01,6.69,0,12.12,5.43,12.12,12.12Z"/><path class="cls-1" d="M15,29.87c-3.98,0-7.72-1.55-10.53-4.36C1.66,22.69,.11,18.95,.11,14.98S1.66,7.26,4.47,4.45C7.28,1.63,11.02,.08,15,.08s7.72,1.55,10.53,4.36c2.81,2.81,4.36,6.55,4.36,10.53s-1.55,7.72-4.36,10.53c-2.81,2.81-6.55,4.36-10.53,4.36ZM15,1.41c-3.62,0-7.03,1.41-9.59,3.97C2.84,7.94,1.43,11.35,1.43,14.98s1.41,7.03,3.97,9.59c2.56,2.56,5.97,3.97,9.59,3.97s7.03-1.41,9.59-3.97c2.56-2.56,3.97-5.97,3.97-9.59s-1.41-7.03-3.97-9.59c-2.56-2.56-5.97-3.97-9.59-3.97Z"/></svg>