<?xml version="1.0" encoding="UTF-8"?><svg id="Layer_1" xmlns="http://www.w3.org/2000/svg" viewBox="0 0 30 30"><defs><style>.cls-1{fill:#ff6746;}</style></defs><path class="cls-1" d="M15,29.84c-3.96,0-7.68-1.54-10.47-4.34C1.73,22.71,.19,18.99,.19,15.03S1.73,7.35,4.53,4.56C7.32,1.76,11.04,.22,15,.22s7.68,1.54,10.47,4.34c2.8,2.8,4.34,6.52,4.34,10.47s-1.54,7.68-4.34,10.47c-2.8,2.8-6.52,4.34-10.47,4.34ZM15,1.53c-3.6,0-6.99,1.4-9.54,3.95-2.55,2.55-3.95,5.94-3.95,9.54s1.4,6.99,3.95,9.54c2.55,2.55,5.94,3.95,9.54,3.95s6.99-1.4,9.54-3.95c2.55-2.55,3.95-5.94,3.95-9.54s-1.4-6.99-3.95-9.54c-2.55-2.55-5.94-3.95-9.54-3.95Z"/><g><path class="cls-1" d="M14.47,16.74c-.36,0-.66-.29-.66-.66V7.05c0-.36,.29-.66,.66-.66s.66,.29,.66,.66v9.03c0,.36-.29,.66-.66,.66Z"/><path class="cls-1" d="M20.66,16.74h-6.19c-.36,0-.66-.29-.66-.66s.29-.66,.66-.66h6.19c.36,0,.66,.29,.66,.66s-.29,.66-.66,.66Z"/></g><path class="cls-1" d="M16.33,14.11c.14-.28,0-11.01,0-11.01,0,0,8.11-.14,11.18,11.01h-11.18Z"/></svg>