<?xml version="1.0" encoding="UTF-8"?><svg id="Layer_1" xmlns="http://www.w3.org/2000/svg" viewBox="0 0 25.01 18.68"><defs><style>.cls-1{fill:#fff;}</style></defs><path class="cls-1" d="M20.3,2.92c-2.61,0-4.72,2.07-4.72,4.62s2.11,4.62,4.72,4.62,4.72-2.07,4.72-4.62-2.11-4.62-4.72-4.62Zm2.39,6.29c.19,.18,.19,.48,0,.66-.09,.09-.22,.14-.34,.14s-.24-.05-.34-.14l-1.71-1.67-1.71,1.67c-.09,.09-.22,.14-.34,.14s-.24-.05-.34-.14c-.19-.18-.19-.48,0-.66l1.71-1.67-1.71-1.67c-.19-.18-.19-.48,0-.66,.19-.18,.49-.18,.68,0l1.71,1.67,1.71-1.67c.19-.18,.49-.18,.68,0,.19,.18,.19,.48,0,.66l-1.71,1.67,1.71,1.67Z"/><path class="cls-1" d="M16.46,11.7v.33c0,.29-.23,.52-.51,.52h-.29c-.28,0-.51-.24-.51-.52v-.71H4.68v.71c0,.29-.23,.52-.51,.52h-.29c-.28,0-.51-.24-.51-.52v-.71H0v5.53c0,1.02,.8,1.84,1.78,1.84H18.05c.98,0,1.78-.82,1.78-1.84v-3.85c-1.29,0-2.47-.49-3.38-1.3Zm.34-8.37h-2.78c-.53-1.93-2.17-3.33-4.1-3.33s-3.56,1.41-4.1,3.33H1.78c-.98,0-1.78,.82-1.78,1.84v4.89H3.38v-.8c0-.29,.23-.52,.51-.52h.29c.28,0,.51,.24,.51,.52v.8H15.15v-.15c-.31-.69-.49-1.46-.49-2.26,0-1.78,.84-3.35,2.13-4.32Zm-9.72,0c.48-1.2,1.57-2.04,2.85-2.04s2.37,.84,2.85,2.04H7.07Z"/></svg>