<?xml version="1.0" encoding="UTF-8"?><svg id="Layer_1" xmlns="http://www.w3.org/2000/svg" viewBox="0 0 25.01 19.67"><defs><style>.cls-1{fill:#fff;}</style></defs><path class="cls-1" d="M0,11.58c.8-.42,1.61-.81,2.44-1.17s1.6-.71,2.43-.94c.46-.12,.93-.19,1.41-.15,.82,.07,1.59,.45,2.27,.91s1.31,1,2.01,1.45c.76,.49,1.62,.88,2.5,1.07s1.89,.2,2.83,.21c.36,0,.74,.01,1.06,.18s.57,.54,.46,.89c-.1,.33-.45,.5-.78,.6-.52,.16-1.07,.23-1.61,.28-2.26,.19-4.56-.09-6.71-.82,.97,1.31,2.69,1.68,4.23,1.75,.54,.02,1.09,.02,1.63,.02,1.27,0,2.81,.06,3.72-1,.42-.49,.6-1.22,.33-1.81-.27-.59-.91-.88-1.52-1-.8-.17-1.64-.11-2.45-.13-.13,0-.26,0-.39-.01,.15-.15,.34-.26,.52-.36,.7-.4,1.4-.79,2.11-1.16,.44-.23,.93-.47,1.43-.4,.33,.05,.63,.24,.82,.51,.03,.05,.06,.1,.11,.13,.14,.09,.33-.12,.44-.19,.23-.13,.46-.26,.71-.34,.4-.13,.86-.15,1.24,.04s.66,.61,.61,1.03c.4-.22,.81-.44,1.25-.56s.94-.1,1.33,.13,.67,.71,.56,1.15c-.09,.36-.38,.63-.67,.87-1.36,1.13-2.82,2.13-4.3,3.09s-2.87,1.84-4.35,2.7c-.43,.25-.87,.51-1.31,.74-.22,.11-.46,.24-.71,.29-.96,.19-1.82,.28-5.12-1.73-3.3-2.01-3.58-1.81-5.8-.1C2.73,17.74,0,11.58,0,11.58Z"/><g><path class="cls-1" d="M12.32,3.12v.92c-.24-.1-.42-.22-.42-.45,0-.26,.18-.42,.42-.48Z"/><path class="cls-1" d="M12.89,4.94c.24,.11,.41,.26,.41,.51s-.17,.41-.41,.48v-.99Z"/><g><path class="cls-1" d="M12.51,9.02c-1.2,0-2.34-.47-3.19-1.32-.85-.85-1.32-1.98-1.32-3.19s.47-2.34,1.32-3.19c.85-.85,1.98-1.32,3.19-1.32s2.34,.47,3.19,1.32,1.32,1.98,1.32,3.19-.47,2.34-1.32,3.19c-.85,.85-1.98,1.32-3.19,1.32ZM12.51,.41c-2.26,0-4.09,1.84-4.09,4.09s1.84,4.09,4.09,4.09,4.09-1.84,4.09-4.09S14.77,.41,12.51,.41Z"/><path class="cls-1" d="M12.51,1.37c-1.73,0-3.14,1.41-3.14,3.14s1.41,3.14,3.14,3.14,3.14-1.41,3.14-3.14-1.41-3.14-3.14-3.14Zm1.5,1.96l-.39,.31s-.09,.02-.12-.01c-.2-.22-.41-.37-.62-.46v1.08c.52,.18,1.06,.45,1.06,1.21,0,.66-.47,1.05-1.06,1.15v.29s-.03,.08-.08,.08h-.41s-.08-.03-.08-.08v-.28c-.45-.07-.94-.32-1.32-.78-.03-.03-.02-.08,.01-.11l.39-.3s.08-.02,.11,.01c.24,.28,.54,.45,.81,.51v-1.22c-.53-.18-1.07-.42-1.07-1.14,0-.67,.49-1.05,1.07-1.13v-.2s.03-.08,.08-.08h.41s.08,.03,.08,.08v.23c.4,.09,.77,.37,1.14,.74,.03,.03,.02,.08-.01,.1Z"/></g></g></svg>