<?xml version="1.0" encoding="UTF-8"?><svg id="Layer_1" xmlns="http://www.w3.org/2000/svg" viewBox="0 0 25.01 16.91"><defs><style>.cls-1{fill:#fff;}</style></defs><path class="cls-1" d="M23.78,0H1.23C.55,0,0,.55,0,1.23V15.68c0,.68,.56,1.23,1.23,1.23H23.78c.68,0,1.23-.56,1.23-1.23V1.23c0-.68-.56-1.23-1.23-1.23Zm-2.67,3.2h2.13v2.13h-2.13V3.2Zm0,4.29h2.13v2.13h-2.13v-2.13Zm-3.22-4.29h2.13v2.13h-2.13V3.2Zm-3.23,0h2.13v2.13h-2.13V3.2Zm0,4.29h2.13v2.13h-2.13v-2.13Zm-3.23-4.29h2.13v2.13h-2.13V3.2Zm0,4.29h2.13v2.13h-2.13v-2.13Zm-3.22-4.29h2.13v2.13h-2.13V3.2Zm0,4.29h2.13v2.13h-2.13v-2.13ZM1.76,3.2H3.89v2.13H1.76V3.2Zm0,4.29H3.89v2.13H1.76v-2.13Zm4.29,6.22H1.76v-2.13H6.05v2.13Zm1.06-4.09h-2.13v-2.13h2.13v2.13Zm0-4.29h-2.13V3.2h2.13v2.13Zm9.97,8.38H7.93v-2.13h9.15v2.13Zm.8-6.22h2.13v2.13h-2.13v-2.13Zm5.37,6.22h-4.29v-2.13h4.29v2.13Z"/></svg>