<?xml version="1.0" encoding="UTF-8"?><svg id="Layer_1" xmlns="http://www.w3.org/2000/svg" viewBox="0 0 30 30"><defs><style>.cls-1{fill:#00aee8;}.cls-2{fill:#ff6746;}</style></defs><path class="cls-2" d="M28.13,15.77l-.04-.38-6.59-2.31-.63-.22-.56,.2-3.22,1.13-3.44,1.21-.04,.38c-.01,.11-.26,2.7,.46,5.72,.43,1.79,1.11,3.36,2.02,4.66,.57,.82,1.24,1.53,1.99,2.13,.58,.46,1.21,.86,1.89,1.19,.22,.11,.44,.21,.67,.3l.22,.09,.22-.09c.15-.06,.3-.13,.45-.2,1.66-.76,3.03-1.91,4.1-3.42,.92-1.3,1.6-2.87,2.02-4.66,.72-3.02,.47-5.61,.46-5.72Zm-4.5,7.5c.23,.23,.23,.61,0,.84-.12,.12-.27,.17-.42,.17s-.3-.06-.42-.17l-1.28-1.28-.63-.63-.56,.56-1.35,1.35c-.12,.12-.27,.17-.42,.17s-.3-.06-.42-.17c-.23-.23-.23-.61,0-.84l1.91-1.91-1.91-1.91c-.23-.23-.23-.61,0-.84,.23-.23,.61-.23,.84,0l1.91,1.91,.63-.63,1.28-1.28c.23-.23,.61-.23,.84,0,.23,.23,.23,.61,0,.84l-1.91,1.91,1.91,1.91Z"/><g><path class="cls-1" d="M15.34,6.78c-.31,0-.55-.25-.55-.55V1.2H2.88V27.44h13.29c-.2-.24-.4-.49-.59-.75-1.04-1.43-1.81-3.16-2.29-5.14-.82-3.34-.53-6.2-.52-6.32l.06-.46H5.04c-.29,0-.53-.24-.53-.53s.24-.53,.53-.53h11.25l4.08-1.39V6.78h-5.03ZM5.04,4.03h6.12c.29,0,.53,.24,.53,.53s-.24,.53-.53,.53H5.04c-.29,0-.53-.24-.53-.53s.24-.53,.53-.53Zm0,3.22h6.12c.29,0,.53,.24,.53,.53s-.24,.53-.53,.53H5.04c-.29,0-.53-.24-.53-.53s.24-.53,.53-.53Zm12.24,4.29H5.04c-.29,0-.53-.24-.53-.53s.24-.53,.53-.53h12.24c.29,0,.53,.24,.53,.53s-.24,.53-.53,.53Z"/><path class="cls-1" d="M21.44,6.25v6.05l-.53-.18-.53,.18V6.78h.48c.22,0,.43-.13,.51-.34,.08-.2,.04-.43-.1-.58,.11,.1,.17,.24,.17,.39Z"/><path class="cls-1" d="M20.37,6.78v-.53c0-.29,.24-.53,.53-.53,.14,0,.26,.05,.35,.14,0,0,0,0,0,0,.14,.16,.18,.38,.1,.58-.09,.21-.29,.34-.51,.34h-.48Z"/><path class="cls-1" d="M21.25,5.84L15.73,.32s-.01-.01-.02-.02c.09,.09,.14,.22,.14,.36,0,.29-.24,.53-.53,.53h-.53V6.23c0,.3,.25,.55,.55,.55h5.03v-.53c0-.29,.24-.53,.53-.53,.14,0,.26,.05,.35,.14,0,0-.01-.01-.02-.02Zm-5.4-.12V1.95l3.77,3.77h-3.77Z"/><path class="cls-1" d="M15.71,.31c.09,.09,.14,.22,.14,.36,0,.29-.24,.53-.53,.53h-.53v-.48c0-.23,.13-.43,.34-.51,.2-.08,.42-.04,.58,.1h0Z"/><path class="cls-1" d="M17.2,28.5H1.82V.13H15.32c.16,0,.29,.07,.39,.17-.16-.14-.38-.18-.58-.1-.21,.09-.34,.29-.34,.51v.48H2.88V27.44h13.29c.32,.38,.67,.73,1.03,1.06Z"/></g></svg>