<?xml version="1.0" encoding="UTF-8"?><svg id="Layer_1" xmlns="http://www.w3.org/2000/svg" viewBox="0 0 30 30"><defs><style>.cls-1{fill:#ff6746;}</style></defs><path class="cls-1" d="M4.45,16.98L15,7.29l10.63,9.69v10.66c0,.59-.43,1.07-.96,1.07h-7.38v-7.89h-4.61v7.89H5.41c-.53,0-.96-.48-.96-1.07v-10.66Z"/><path class="cls-1" d="M29.79,15.01l-1.4,1.86c-.2,.26-.55,.3-.78,.08L14.98,5.27,2.23,16.94c-.24,.22-.59,.18-.78-.08L.21,15.2c-.2-.26-.16-.65,.07-.87L13.65,1.84c.77-.72,1.9-.73,2.68-.01l4.62,4.24V1.87c0-.27,.2-.49,.44-.49h3.81c.24,0,.44,.22,.44,.49V10.38l4.08,3.75c.24,.22,.27,.61,.07,.88Z"/></svg>