<?xml version="1.0" encoding="UTF-8"?><svg id="Layer_1" xmlns="http://www.w3.org/2000/svg" viewBox="0 0 30 30"><defs><style>.cls-1{fill:#8bc840;}</style></defs><path class="cls-1" d="M14.97,29.82c-3.96,0-7.68-1.54-10.48-4.34C1.69,22.68,.15,18.96,.15,15S1.69,7.32,4.49,4.52C7.29,1.72,11.01,.18,14.97,.18s7.68,1.54,10.48,4.34c2.8,2.8,4.34,6.52,4.34,10.48s-1.54,7.68-4.34,10.48c-2.8,2.8-6.52,4.34-10.48,4.34ZM14.97,1.5c-3.61,0-7,1.4-9.55,3.95-2.55,2.55-3.95,5.94-3.95,9.55s1.4,7,3.95,9.55c2.55,2.55,5.94,3.95,9.55,3.95s7-1.4,9.55-3.95c2.55-2.55,3.95-5.94,3.95-9.55s-1.4-7-3.95-9.55c-2.55-2.55-5.94-3.95-9.55-3.95Z"/><g><path class="cls-1" d="M11.45,21.96l-5.5-5.5c-.26-.26-.26-.67,0-.93,.26-.26,.67-.26,.93,0l4.56,4.56,11.6-11.6c.26-.26,.67-.26,.93,0s.26,.67,0,.93l-12.53,12.53Z"/><path class="cls-1" d="M11.45,22.8l-5.92-5.91c-.24-.24-.37-.55-.37-.89s.13-.65,.37-.89c.24-.24,.55-.37,.88-.37h0c.33,0,.65,.13,.89,.37l4.14,4.14,11.18-11.18c.49-.49,1.28-.49,1.77,0,.24,.24,.37,.55,.37,.89s-.13,.65-.37,.89l-12.95,12.95Zm-4.98-6.85l4.99,5.16,12.1-12.1-12.11,11.92-4.98-4.98Z"/></g></svg>