<?xml version="1.0" encoding="UTF-8"?><svg id="Layer_1" xmlns="http://www.w3.org/2000/svg" viewBox="0 0 25.01 15.32"><defs><style>.cls-1{fill:#fff;}</style></defs><g><path class="cls-1" d="M10.36,8.55v.84c-.22-.09-.38-.2-.38-.41,0-.24,.17-.38,.38-.43Z"/><path class="cls-1" d="M11.25,10.66c0,.22-.16,.37-.37,.44v-.9c.22,.1,.37,.23,.37,.46Z"/><g><path class="cls-1" d="M20.51,10.64c-.32,0-.64-.03-.95-.07v2.88c0,.28-.17,.5-.37,.5h-2.13c-.21,0-.37-.22-.37-.5s.17-.5,.37-.5h1.76v-2.55c-2.49-.73-4.3-3.03-4.3-5.75,0-.12,0-.23,0-.35H1.38c-.76,0-1.38,.62-1.38,1.38V13.94c0,.76,.62,1.38,1.38,1.38H19.69c.76,0,1.38-.62,1.38-1.38v-3.32c-.18,.02-.37,.03-.55,.03ZM4.01,12.95c.21,0,.37,.22,.37,.5s-.17,.5-.37,.5H1.87c-.21,0-.37-.22-.37-.5V6.02c0-.28,.17-.5,.37-.5h2.13c.21,0,.37,.22,.37,.5s-.17,.5-.37,.5h-1.76v6.42h1.76Zm6.53,.59c-2.06,0-3.73-1.67-3.73-3.73s1.67-3.73,3.73-3.73,3.73,1.67,3.73,3.73-1.67,3.73-3.73,3.73Z"/><path class="cls-1" d="M10.53,6.95c-1.58,0-2.86,1.28-2.86,2.86s1.28,2.86,2.86,2.86,2.86-1.28,2.86-2.86-1.28-2.86-2.86-2.86Zm1.37,1.78l-.35,.28s-.08,.02-.11-.01c-.18-.2-.37-.34-.57-.42v.98c.47,.17,.96,.41,.96,1.1,0,.6-.43,.95-.96,1.04v.27s-.03,.07-.07,.07h-.37s-.07-.03-.07-.07v-.26c-.41-.06-.85-.3-1.2-.71-.03-.03-.02-.07,.01-.1l.36-.27s.07-.02,.1,.01c.22,.25,.49,.41,.74,.47v-1.11c-.48-.16-.97-.38-.97-1.04,0-.61,.45-.96,.97-1.03v-.18s.03-.07,.07-.07h.37s.07,.03,.07,.07v.21c.37,.08,.7,.34,1.04,.67,.03,.03,.02,.07-.01,.09Z"/></g></g><path class="cls-1" d="M20.3,0c-2.61,0-4.72,2.11-4.72,4.72s2.11,4.72,4.72,4.72,4.72-2.11,4.72-4.72S22.9,0,20.3,0Zm.67,7.42c-.53,.13-1.05,.11-1.57-.07-.12-.04-.19-.15-.18-.27,.01-.13,.1-.22,.23-.24,.04,0,.08,0,.12,.02,.63,.2,1.25,.16,1.82-.17,.65-.36,1.03-.92,1.14-1.66,.17-1.18-.6-2.28-1.76-2.53-1.23-.26-2.43,.53-2.69,1.75-.03,.14-.04,.29-.05,.43,0,0,0,.01,0,.02h.04c.26,0,.52,0,.78,0,.04,0,.07,0,.09,.04,.02,.04,0,.07-.03,.09-.36,.39-.72,.77-1.08,1.16-.05,.05-.09,.05-.13,0-.36-.39-.72-.78-1.08-1.16-.02-.03-.04-.05-.03-.09,.02-.04,.05-.04,.09-.04,.26,0,.52,0,.78,0h.04c0-.06,0-.12,0-.18,.08-1.06,.72-1.96,1.69-2.38,1.57-.67,3.39,.25,3.78,1.92,.35,1.49-.55,2.97-2.04,3.34Zm.82-2.22c.1,.04,.14,.16,.09,.26-.03,.07-.1,.11-.17,.11-.03,0-.05,0-.08-.02l-1.41-.65c-.09-.04-.13-.13-.11-.22,0-.01,0-.03,0-.05v-1.55c0-.11,.09-.19,.19-.19s.19,.09,.19,.19v1.52l1.3,.6Z"/></svg>