<?xml version="1.0" encoding="UTF-8"?><svg id="Layer_1" xmlns="http://www.w3.org/2000/svg" viewBox="0 0 30 30"><defs><style>.cls-1{fill:#8bc840;}</style></defs><path class="cls-1" d="M29.7,7.92v2.75H.31v-2.75c0-1.76,1.43-3.17,3.19-3.17h1.85v1.12c0,.73,.61,1.32,1.34,1.32h1.01c.73,0,1.34-.59,1.34-1.32v-1.12h11.92v1.12c0,.73,.6,1.32,1.34,1.32h1.03c.71,0,1.32-.59,1.32-1.32v-1.12h1.85c1.76,0,3.19,1.41,3.19,3.17Z"/><path class="cls-1" d="M8.42,1.95v3.98c0,.29-.24,.53-.56,.53h-1.32c-.31,0-.55-.24-.55-.53V1.95c0-.31,.24-.55,.55-.55h1.32c.31,0,.56,.24,.56,.55Z"/><path class="cls-1" d="M24.04,1.95v3.98c0,.29-.24,.53-.56,.53h-1.32c-.31,0-.55-.24-.55-.53V1.95c0-.31,.24-.55,.55-.55h1.32c.31,0,.56,.24,.56,.55Z"/><path class="cls-1" d="M.3,11.29v15.69c0,.88,.74,1.63,1.63,1.63H28.08c.88,0,1.61-.74,1.61-1.63V11.29H.3Zm6.54,12.46H3.25c-.64,0-1.18-.53-1.18-1.18s.55-1.18,1.18-1.18h3.59c.65,0,1.18,.53,1.18,1.18s-.53,1.18-1.18,1.18Zm0-6.38H3.25c-.64,0-1.18-.53-1.18-1.18s.55-1.18,1.18-1.18h3.59c.65,0,1.18,.53,1.18,1.18s-.53,1.18-1.18,1.18Zm9.95,6.38h-3.57c-.65,0-1.2-.53-1.2-1.18s.55-1.18,1.2-1.18h3.57c.65,0,1.18,.53,1.18,1.18s-.53,1.18-1.18,1.18Zm0-6.38h-3.57c-.65,0-1.2-.53-1.2-1.18s.55-1.18,1.2-1.18h3.57c.65,0,1.18,.53,1.18,1.18s-.53,1.18-1.18,1.18Zm9.95,6.38h-3.57c-.65,0-1.18-.53-1.18-1.18s.53-1.18,1.18-1.18h3.57c.65,0,1.18,.53,1.18,1.18s-.53,1.18-1.18,1.18Zm0-6.38h-3.57c-.65,0-1.18-.53-1.18-1.18s.53-1.18,1.18-1.18h3.57c.65,0,1.18,.53,1.18,1.18s-.53,1.18-1.18,1.18Z"/></svg>