<svg id="Group_29108" data-name="Group 29108" xmlns="http://www.w3.org/2000/svg" xmlns:xlink="http://www.w3.org/1999/xlink" width="73.211" height="63" viewBox="0 0 73.211 63">
  <defs>
    <clipPath id="clip-path">
      <rect id="Rectangle_6213" data-name="Rectangle 6213" width="73.21" height="63" fill="none"/>
    </clipPath>
  </defs>
  <g id="Group_29107" data-name="Group 29107" clip-path="url(#clip-path)">
    <path id="Path_1740" data-name="Path 1740" d="M31.5,0A31.5,31.5,0,1,0,50.091,56.917a15.574,15.574,0,0,1-3.966-2.077,27.513,27.513,0,0,1-7.136,3.167,25.885,25.885,0,0,0,2.5-4.906q.419-1.075.794-2.241a15.529,15.529,0,0,1-2.466-6.371,42.513,42.513,0,0,1-2,7.182,18.568,18.568,0,0,1-3.276,5.71A4.238,4.238,0,0,1,31.5,59.063a4.233,4.233,0,0,1-3.043-1.685,18.412,18.412,0,0,1-3.276-5.706,44.777,44.777,0,0,1-2.217-8.359H39.688q-.041-.565-.041-1.141a15.693,15.693,0,0,1,.25-2.8H22.424a70.7,70.7,0,0,1-.484-7.875,70.583,70.583,0,0,1,.484-7.875H40.576a70.578,70.578,0,0,1,.485,7.875c0,1.568-.066,3.085-.176,4.566a15.667,15.667,0,0,1,4.1-5.659c-.042-2.344-.216-4.593-.447-6.783H57.909a27.4,27.4,0,0,1,.769,3.294,15.5,15.5,0,0,1,4.181,1.59A31.539,31.539,0,0,0,31.5,0M5.092,23.626H18.455A75.165,75.165,0,0,0,18,31.5a75.409,75.409,0,0,0,.453,7.875H5.092a27.454,27.454,0,0,1,0-15.75M24.011,58.008A27.535,27.535,0,0,1,6.623,43.313h12.3A48.831,48.831,0,0,0,21.511,53.1a25.5,25.5,0,0,0,2.5,4.906m-2.5-48.1a49.016,49.016,0,0,0-2.583,9.781H6.615a27.534,27.534,0,0,1,17.4-14.7,25.639,25.639,0,0,0-2.508,4.921m1.445,9.781a44.734,44.734,0,0,1,2.225-8.352,18.568,18.568,0,0,1,3.276-5.71A4.269,4.269,0,0,1,31.5,3.938a4.248,4.248,0,0,1,3.044,1.693,18.352,18.352,0,0,1,3.276,5.706,44.65,44.65,0,0,1,2.225,8.352Zm21.117,0A49.015,49.015,0,0,0,41.49,9.907a25.887,25.887,0,0,0-2.508-4.921,27.534,27.534,0,0,1,17.4,14.7Z" fill="#fff"/>
    <path id="Path_1741" data-name="Path 1741" d="M657.867,455.126c-.038-.041-.076-.079-.118-.118l-3.416-3.483-1.375-1.4-1.507-1.536a13.894,13.894,0,0,0,.978-14.195,13.363,13.363,0,0,0-8.238-6.861q-.606-.175-1.232-.294a13.143,13.143,0,0,0-2.436-.236,13.442,13.442,0,0,0-12.753,9.4,13.846,13.846,0,0,0,4.773,15.294q.3.225.605.43a13.205,13.205,0,0,0,15.124-.29l1.44,1.47,1.375,1.4,3.48,3.547a2.2,2.2,0,0,0,3.1.045c.015-.016.029-.031.045-.045l.032-.032a2.192,2.192,0,0,0,.117-3.095m-17.173-4.686-.193,0a9.763,9.763,0,0,1-9.679-8.627,9.763,9.763,0,0,1,9.679-10.909,9.63,9.63,0,0,1,1.614.134,9.768,9.768,0,0,1-1.422,19.4" transform="translate(-585.239 -398.502)" fill="#fff"/>
  </g>
</svg>
